<svg xmlns="http://www.w3.org/2000/svg" viewBox="0 0 360 260" role="img" aria-label="Correct feedback">
  <rect width="360" height="260" rx="30" fill="#dcffea"/>
  <circle cx="178" cy="122" r="72" fill="#55d987"/>
  <path d="M141 121l27 28 55-62" fill="none" stroke="#fff" stroke-width="19" stroke-linecap="round" stroke-linejoin="round"/>
  <g fill="#ffcf57">
    <path d="M62 56l9 18 20 3-15 14 4 20-18-10-18 10 4-20-15-14 20-3z"/>
    <path d="M292 42l7 15 17 2-12 12 3 17-15-8-15 8 3-17-12-12 17-2z"/>
    <path d="M284 180l8 16 18 3-13 12 3 18-16-9-16 9 3-18-13-12 18-3z"/>
  </g>
  <text x="180" y="225" text-anchor="middle" font-family="Arial, sans-serif" font-size="24" font-weight="800" fill="#1d7d49">Correct!</text>
</svg>
